<svg width="81" height="80" viewBox="0 0 81 80" fill="none" xmlns="http://www.w3.org/2000/svg">
<path d="M38.9148 10.8866C39.0587 10.6253 39.27 10.4074 39.5268 10.2556C39.7837 10.1039 40.0765 10.0238 40.3748 10.0238C40.6731 10.0238 40.9659 10.1039 41.2227 10.2556C41.4795 10.4074 41.6909 10.6253 41.8348 10.8866L51.6748 29.5666C51.9094 29.9992 52.237 30.3744 52.6338 30.6653C53.0307 30.9563 53.487 31.1558 53.9701 31.2495C54.4532 31.3432 54.9511 31.3287 55.4279 31.2072C55.9048 31.0857 56.3488 30.8601 56.7281 30.5466L70.9848 18.3333C71.2585 18.1107 71.5957 17.9807 71.948 17.962C72.3003 17.9432 72.6494 18.0368 72.9451 18.2291C73.2408 18.4214 73.4679 18.7026 73.5936 19.0323C73.7194 19.3619 73.7373 19.7229 73.6448 20.0633L64.1981 54.2166C64.0053 54.9155 63.5899 55.5325 63.0148 55.974C62.4398 56.4155 61.7364 56.6575 61.0115 56.6633H19.7415C19.0159 56.6582 18.3118 56.4166 17.7361 55.975C17.1604 55.5334 16.7444 54.9161 16.5515 54.2166L7.10812 20.0666C7.01562 19.7262 7.03352 19.3652 7.15926 19.0356C7.28499 18.706 7.51206 18.4248 7.80779 18.2324C8.10352 18.0401 8.45265 17.9466 8.80492 17.9653C9.15719 17.984 9.49444 18.114 9.76812 18.3366L24.0215 30.55C24.4008 30.8634 24.8448 31.089 25.3217 31.2105C25.7985 31.3321 26.2964 31.3465 26.7795 31.2528C27.2625 31.1591 27.7189 30.9596 28.1158 30.6687C28.5126 30.3777 28.8401 30.0025 29.0748 29.57L38.9148 10.8866Z" fill="#FAEEC8"/>
<path d="M17.0415 70H63.7081Z" fill="#FAEEC8"/>
</svg>
